<svg width="27" height="38" viewBox="0 0 27 38" fill="none" xmlns="http://www.w3.org/2000/svg">
<path d="M25.4098 9.34426C25.3552 9.18033 25.2596 8.92076 25.123 8.56557C24.9863 8.21038 24.8907 7.97814 24.8361 7.86885C23.6885 5.19126 22.0082 3.21038 19.7951 1.92623C17.582 0.642076 15.2732 0 12.8689 0C9.7541 0 6.93989 1.02459 4.42623 3.07377C1.91257 5.12295 0.437158 8.00546 0 11.7213V13.2787L0.0819672 13.6885V14.2623C0.191257 15.1366 0.478142 16.1339 0.942623 17.2541C1.4071 18.3743 1.8306 19.276 2.21311 19.959C2.59563 20.6421 3.21038 21.6803 4.05738 23.0738C4.90437 24.4672 5.46448 25.3825 5.7377 25.8197C7.3224 28.4973 9.7541 32.459 13.0328 37.7049C13.4699 36.9945 14.9727 34.4262 17.541 30C17.6503 29.8361 17.8552 29.5082 18.1557 29.0164C18.4563 28.5246 18.6612 28.1421 18.7705 27.8689C18.8798 27.7049 19.0574 27.4727 19.3033 27.1721C19.5492 26.8716 19.7268 26.6393 19.8361 26.4754C20.2186 25.765 21.0519 24.4126 22.3361 22.418C23.6202 20.4235 24.5628 18.7432 25.1639 17.377C25.765 16.0109 26.0656 14.6721 26.0656 13.3607V11.5574C26.0656 10.9563 25.847 10.2186 25.4098 9.34426ZM12.9508 17.459C10.8197 17.459 9.34426 16.4208 8.52459 14.3443C8.46995 14.071 8.44262 13.6612 8.44262 13.1148V12.0492C8.44262 10.6831 8.9071 9.63115 9.83607 8.89344C10.765 8.15574 11.8579 7.78689 13.1148 7.78689C14.4809 7.78689 15.6148 8.25137 16.5164 9.18033C17.418 10.1093 17.8689 11.2568 17.8689 12.623C17.8689 13.9891 17.3907 15.1366 16.4344 16.0656C15.4781 16.9945 14.3169 17.459 12.9508 17.459Z" fill="#27AE60"/>
</svg>
